<svg version="1.1" id="Layer_1" xmlns="http://www.w3.org/2000/svg" xmlns:xlink="http://www.w3.org/1999/xlink" x="0px" y="0px" viewBox="0 0 231.9 53.5" style="enable-background:new 0 0 231.9 53.5;" xml:space="preserve"> <style type="text/css"> .st0{fill:#91D500;} .st1{fill:#025157;} </style> <g> <path class="icon st0" d="M36,18L18,0L0,18l8.8,8.8L0,35.5l18,18l18-18l-8.8-8.8L36,18z M19,3.7l13.8,13.8H19V3.7z M17,17.5H3.3L17,3.7 V17.5z M17,32.3l-5.5-5.5l5.5-5.5V32.3z M17,49.8L3.5,36.3H17V49.8z M19,36.3h13.5L19,49.8V36.3z M19,21.2l5.5,5.5L19,32.3V21.2z M20,19.5h11.9l-5.9,5.9L20,19.5z M4.2,19.5h11.9l-5.9,5.9L4.2,19.5z M16.3,34.4H3.9l6.2-6.2L16.3,34.4z M32.1,34.4H19.7l6.2-6.2 L32.1,34.4z"></path> <g class="text"> <path class="st1" d="M48.2,40.2V13.4h15.7V16H51.1v9.3h11.5v2.6H51.1v9.7h12.8v2.6H48.2z"></path> <path class="st1" d="M95.7,40.2l-0.4-19l-9.5,16.2h-0.4l-9.6-16.3l-0.3,19h-3l1-27.3l0.6-0.1l11.7,20.2l11.4-20.2l0.6,0.1l1,27.3 H95.7z"></path> <path class="st1" d="M107.8,40.2V13.4h15.7V16h-12.8v9.3h11.5v2.6h-11.5v9.7h12.8v2.6H107.8z"></path> <path class="st1" d="M147.5,40.2l-7.1-10.6c-0.6,0-1.2,0.1-1.8,0.1c-0.9,0-2.2,0-3-0.1v10.6h-2.9V13.6c2-0.3,4-0.4,6.2-0.4 c6.9,0,10.3,3.4,10.3,8.1c0,3.7-2.1,6.6-5.9,7.8l7.8,11.2H147.5z M139.2,15.8c-1.2,0-2.7,0.1-3.7,0.3V27c0.9,0.1,2.2,0.2,3.3,0.2 c5,0,7.2-2.3,7.2-5.8C146,18.3,143.6,15.8,139.2,15.8z"></path> <path class="st1" d="M176.7,40.2l-3.2-7.4h-12l-3.2,7.4h-3l12.1-27.4h0.5l12.1,27.4H176.7z M167.5,18.8l-4.9,11.5h9.9L167.5,18.8z "></path> <path class="st1" d="M186.6,40.2V13.4h2.9v24.2h12.8v2.6H186.6z"></path> <path class="st1" d="M216.8,40.5c-2.7,0-5.2-0.2-7.3-0.4V13.6c2.1-0.3,4.3-0.4,7-0.4c10.1,0,15.4,6.5,15.4,13.4 C231.9,33.8,226.9,40.5,216.8,40.5z M216.8,15.7c-1.6,0-3.4,0.1-4.3,0.3v21.7c1.1,0.2,2.6,0.3,4.7,0.3c7.9,0,11.5-5,11.5-11.4 C228.7,20.3,224.6,15.7,216.8,15.7z"></path> </g> </g> </svg>